<svg width="1000" height="1000" viewBox="0 0 1000 1000" fill="none" xmlns="http://www.w3.org/2000/svg">
<path d="M188.5 708C234.666 649.214 358.697 566.998 486.605 706.471C447.183 662.88 430.401 613.43 425.834 568C336.502 542 272.39 557.167 251.5 568L335.5 394.5L425.834 568C420.533 515.266 431.69 467.948 443 441.5L335.5 217L94 708H188.5Z" fill="#0000FF"/>
<path d="M488 708C533.466 750.75 611.615 794.394 694 780.816C768.354 768.561 883 719.5 906.5 561.5L791.5 628C762.833 664.5 681.1 723.5 583.5 667.5C538.5 639.667 469 555.5 551 441.5C587.167 397.5 685.9 337.7 791.5 450.5H892C877.833 406.5 816.6 314 685 296C627.333 290.833 498.2 312.7 443 441.5C431.69 467.948 420.533 515.266 425.834 568C430.401 613.43 447.183 662.88 486.605 706.471C487.07 706.977 487.535 707.487 488 708Z" fill="#FFCC29"/>
<path d="M806 579.5V600.5L906.5 540L806 480V500H616C605.5 504.833 585.9 521 591.5 547C591.5 554.167 596.4 570.7 616 579.5H806Z" fill="#FFCC29"/>
</svg>
